<svg id="Слой_1" data-name="Слой 1" xmlns="http://www.w3.org/2000/svg" viewBox="0 0 155.11 127.89"><defs><style>.cls-1{fill:none;stroke:#ff8016;stroke-miterlimit:10;stroke-width:3px;}</style></defs><path class="cls-1" d="M78.23,106.3c2.23,2.48,2.4,5.73,4.37,8.18a2,2,0,0,1,.43,1.87c-.24.94-.69,2,.86,2.21.17,0,.31.23.53.4a8.24,8.24,0,0,0,1-3.79A18.28,18.28,0,0,1,86.56,110,19.23,19.23,0,0,0,91,119.69c2.24,2.8,4.33,5.86,8.19,6.7h1.2a19.91,19.91,0,0,1,3.45-.12H104a2,2,0,0,1,1.11.11h.48a8.52,8.52,0,0,1,3-.46,5.89,5.89,0,0,0,5.35-6.12c-.1-4.9-.21-9.81-.21-14.71a21.78,21.78,0,0,0-4.44-13.47q-6.27-8.38-12.17-17A5.21,5.21,0,0,1,96.38,70c.17-.61.37-1.22.54-1.83.72-2.67,2.48-4.8,3.72-7.2,2.53-4.88,4.73-9.92,6.94-15,.3-.7.59-.86,1.34-.61a15.55,15.55,0,0,0,6,1,19.45,19.45,0,0,1,7.37,1.25c.72.24,1.47.38,2.16.67a4.33,4.33,0,0,0,4.5-.65c.46-.32.94-.61,1.37-1,2.78-2.26,5.18-4.81,5.63-8.56.25-2-.37-4-.46-6.07s-.36-4.23-.32-6.65h0a2.43,2.43,0,0,1,0-.27l.15.23c.65,1,1.18,1.72,1.63,2.5.3.5.56.53,1,.24,1.51-.9,3.05-1.75,4.58-2.61l11.06-6.16v-.24c-.31-.51-.41-1.11-.72-1.64C150,12.59,147,7.77,144.17,2.88a2.51,2.51,0,0,0-2.5-1.38q-64,0-128,0a2.59,2.59,0,0,0-2.51,1.39C9,6.63,6.6,10.3,4.36,14a27.18,27.18,0,0,0-2.86,5.1v.24c.28.13.58.24.85.39,5,2.82,10,5.63,15,8.49.74.42,1.12.48,1.54-.38.51-1,1.16-2,1.91-3.24l.17-.28.06.34A63.54,63.54,0,0,1,22.12,34,30.43,30.43,0,0,0,22.06,38c.78,4.91,3.79,8.23,8.07,10.47A3.7,3.7,0,0,0,34.4,48a4,4,0,0,1,3.51-.73c1.52.31,3,.7,4.56,1,3,.6,4,1.39,5.88-2.17.38-.72.79-.65,1.25-.07.68.88,1.4,1.74,2.08,2.62,2.29,2.94,4.63,5.82,8,7.64a5.38,5.38,0,0,1,1.73,1.63,17.35,17.35,0,0,1,2.76,6.3c.25,1-.12,1-.86.82a30.89,30.89,0,0,0-6.78-.61A8,8,0,0,0,50.45,67,134.76,134.76,0,0,0,36.77,85.89a7.61,7.61,0,0,0-1,4.12c0,8.65-.13,17.31.21,26a1.38,1.38,0,0,1-.4,1.19c-2.35,2.15-4.58,4.47-7.43,6-.87.47-.54,1.15-.51,1.76,0,.79.72.46,1.12.46q7.37,0,14.75,0h3c-.3-1.2-.62-2.27-.83-3.36-.29-1.47-.33-2.82.93-4.07,2.37-2.36,2.43-3.38.81-6.34a1.52,1.52,0,0,1-.1-1.43c1.9-4.77,3.81-9.55,6-14.18.79-1.65,1.45-3.44,2.79-4.72a12.31,12.31,0,0,0,3.66-7.71A25.71,25.71,0,0,0,60,80.35v-.29c.06.07.13.14.18.21a7.05,7.05,0,0,1,1.73,6.33c-.32,1.68-.61,3.37-1,5-.11.51-.08.73.45,1,1,.47,1.39.3,1.67-.8a10.92,10.92,0,0,1,1.53-3.35A4,4,0,0,1,66,87a8.11,8.11,0,0,0,4.45-6.89,4.27,4.27,0,0,1,.79-2.32.61.61,0,0,1,.07-.1v.11a81.63,81.63,0,0,1-.07,9.67,4.93,4.93,0,0,1-.52,2.19c-2.31,3.81-3,7.75-1,11.94a5.31,5.31,0,0,1,.25.8,8.85,8.85,0,0,1,.3,4c-.37,2.24-.55,4.51-.81,6.76-.06.29-.29.63,0,.85l0,0,.17.09c.82-2.36,1.65-4.72,2.47-7.09a12.28,12.28,0,0,1,1.3-2.8,1.52,1.52,0,0,1,2.26-.51,7.45,7.45,0,0,1,1.55,1.47Z"/><path class="cls-1" d="M37.24,39s0-5.26-2.09-7.21a21.42,21.42,0,0,1-6.76-12.23C28.11,18,28.11,18,29.64,18h94.64c1.51,0,1.7.19,1.21,1.64a53.17,53.17,0,0,1-3.2,6.68c-1.21,2.41-2.87,4.61-3.21,7.41a18.45,18.45,0,0,0-.1,5.35l.15.93c0-.16-.29-1.82-.26-2.41a23,23,0,0,1,.69-5.88c.22-.87-2.11-1-2.92-1.27a13.54,13.54,0,0,0-9.9.88c-.25.11-.51.23-.75.36-.46.27-.68.26-.74-.38-.22-2.43-.86-3-3.27-3-5.31,0-10.63,0-16,0h-.75c0,.07-.18,7.73-.16,11.13a3.09,3.09,0,0,1-.48,1.8,36.54,36.54,0,0,1-4.49,6.34c-1.63,1.67-2.7,1.68-4.38.08a43.13,43.13,0,0,1-5.46-6.81A1.47,1.47,0,0,1,70,40c0-1.52,0-3,0-4.55"/><path class="cls-1" d="M85.28,28.3c0-2.2-2.68-5.47-6.77-5.47s-6.09,1.37-7.28,3.81a1.61,1.61,0,0,1-1.75.94c-4.19,0-7.73.12-11.92-.06A8.5,8.5,0,0,0,51,30.14c-.61.56-1.05,1.57-1.81,1.63s-1.4-.68-2.12-1c-3-1.32-8.84-.2-11.94,1"/></svg>