<svg width="23" height="23" viewBox="0 0 23 23" fill="none" xmlns="http://www.w3.org/2000/svg">
<path d="M18.6884 9.34238C18.6884 11.404 18.019 13.3084 16.8915 14.8535L22.5788 20.5443C23.1404 21.1057 23.1404 22.0175 22.5788 22.5789C22.0173 23.1404 21.1053 23.1404 20.5438 22.5789L14.8564 16.8882C13.311 18.02 11.4062 18.6848 9.34421 18.6848C4.18243 18.6848 0 14.5031 0 9.34238C0 4.18161 4.18243 0 9.34421 0C14.506 0 18.6884 4.18161 18.6884 9.34238ZM9.34421 15.8102C12.9157 15.8102 15.8133 12.9131 15.8133 9.34238C15.8133 5.77162 12.9157 2.87458 9.34421 2.87458C5.77274 2.87458 2.87514 5.77162 2.87514 9.34238C2.87514 12.9131 5.77274 15.8102 9.34421 15.8102Z" fill="#E0D4CA" fill-opacity="0.9"/>
</svg>
